<?xml version="1.0" encoding="UTF-8" standalone="no"?>
<!-- Created with Inkscape (http://www.inkscape.org/) -->

<svg
   xmlns:dc="http://purl.org/dc/elements/1.1/"
   xmlns:cc="http://creativecommons.org/ns#"
   xmlns:rdf="http://www.w3.org/1999/02/22-rdf-syntax-ns#"
   xmlns:svg="http://www.w3.org/2000/svg"
   xmlns="http://www.w3.org/2000/svg"
   xmlns:sodipodi="http://sodipodi.sourceforge.net/DTD/sodipodi-0.dtd"
   xmlns:inkscape="http://www.inkscape.org/namespaces/inkscape"
   width="190mm"
   height="75mm"
   viewBox="0 0 190 75"
   version="1.1"
   id="svg8"
   inkscape:version="0.92.5 (2060ec1f9f, 2020-04-08)"
   sodipodi:docname="logo.svg">
  <defs
     id="defs2" />
  <sodipodi:namedview
     id="base"
     pagecolor="#ffffff"
     bordercolor="#666666"
     borderopacity="1.0"
     inkscape:pageopacity="0.0"
     inkscape:pageshadow="2"
     inkscape:zoom="1.225301"
     inkscape:cx="398.01334"
     inkscape:cy="122.82399"
     inkscape:document-units="mm"
     inkscape:current-layer="layer1"
     showgrid="false"
     showguides="true"
     inkscape:guide-bbox="true"
     inkscape:window-width="1310"
     inkscape:window-height="704"
     inkscape:window-x="56"
     inkscape:window-y="27"
     inkscape:window-maximized="1" />
  <metadata
     id="metadata5">
    <rdf:RDF>
      <cc:Work
         rdf:about="">
        <dc:format>image/svg+xml</dc:format>
        <dc:type
           rdf:resource="http://purl.org/dc/dcmitype/StillImage" />
        <dc:title />
      </cc:Work>
    </rdf:RDF>
  </metadata>
  <g
     inkscape:label="Camada 1"
     inkscape:groupmode="layer"
     id="layer1"
     transform="translate(0,-222)">
    <path
       style="fill:#008890;fill-opacity:1;stroke:none;stroke-width:0.26458332px;stroke-linecap:butt;stroke-linejoin:miter;stroke-opacity:1"
       d="m 55.537574,224.28298 -20.045285,12.29434 h 4.810559 v 12.56202 l 19.299597,17.62683 h -7.974193 v 15.24713 h -1.65106 v -16.83825 h 5.360397 L 35.224605,247.26814 14.137004,265.17505 h 5.467365 v 23.33708 H 1.4090995 v 6.59753 H 188.54287 V 282.0133 H 69.702601 l 0.267168,-45.43598 h 5.078244 z m 1.187008,16.90336 h 7.150468 v 12.64315 h -7.150468 z m -28.827179,23.98871 h 6.551539 v 4.41007 h -6.551539 z m 7.609872,0 h 6.551538 v 4.41007 h -6.551538 z m -7.609872,5.40433 h 6.551539 v 4.41006 h -6.551539 z m 7.609872,0 h 6.551538 v 4.41006 h -6.551538 z m -4.143417,7.95506 h 7.32565 v 9.97769 h -7.32565 z"
       id="path33-7-3"
       inkscape:connector-curvature="0" />
    <text
       xml:space="preserve"
       style="font-style:normal;font-variant:normal;font-weight:normal;font-stretch:normal;font-size:42.39122391px;line-height:1.25;font-family:Sawasdee;-inkscape-font-specification:'Sawasdee, Normal';font-variant-ligatures:normal;font-variant-caps:normal;font-variant-numeric:normal;font-feature-settings:normal;text-align:start;letter-spacing:0px;word-spacing:0px;writing-mode:lr-tb;text-anchor:start;fill:#000000;fill-opacity:1;stroke:none;stroke-width:1.05973923"
       x="68.93853"
       y="279.6517"
       id="text171"><tspan
         sodipodi:role="line"
         id="tspan169"
         x="68.93853"
         y="279.6517"
         style="font-style:normal;font-variant:normal;font-weight:normal;font-stretch:normal;font-size:42.39122391px;font-family:Sawasdee;-inkscape-font-specification:'Sawasdee, Normal';font-variant-ligatures:normal;font-variant-caps:normal;font-variant-numeric:normal;font-feature-settings:normal;text-align:start;writing-mode:lr-tb;text-anchor:start;stroke-width:1.05973923">Syndic</tspan></text>
    <path
       inkscape:connector-curvature="0"
       id="path12"
       style="font-style:normal;font-weight:normal;font-size:5.74496984px;line-height:1.25;font-family:sans-serif;letter-spacing:0px;word-spacing:0px;fill:#ffffff;fill-opacity:1;stroke:none;stroke-width:0.14362423"
       d="m 73.678372,290.33536 v -1.12487 h -0.925703 v -0.46565 h 1.486735 v 1.7981 q -0.328204,0.23283 -0.723731,0.35345 -0.395528,0.11782 -0.844354,0.11782 -0.981806,0 -1.537228,-0.57225 -0.552617,-0.57506 -0.552617,-1.59894 0,-1.02669 0.552617,-1.59895 0.555422,-0.57505 1.537228,-0.57505 0.409554,0 0.77703,0.10098 0.370281,0.10099 0.681654,0.29735 v 0.60311 q -0.314178,-0.26649 -0.667628,-0.40114 -0.353451,-0.13465 -0.743368,-0.13465 -0.768614,0 -1.155726,0.42919 -0.384308,0.42919 -0.384308,1.27916 0,0.84715 0.384308,1.27634 0.387112,0.42919 1.155726,0.42919 0.300152,0 0.535786,-0.0505 0.235633,-0.0533 0.423579,-0.1627 z" />
    <path
       inkscape:connector-curvature="0"
       id="path14"
       style="font-style:normal;font-weight:normal;font-size:5.74496984px;line-height:1.25;font-family:sans-serif;letter-spacing:0px;word-spacing:0px;fill:#ffffff;fill-opacity:1;stroke:none;stroke-width:0.14362423"
       d="m 77.939412,289.23293 v 0.25247 h -2.373166 q 0.03366,0.53298 0.319788,0.81349 0.288931,0.27772 0.802276,0.27772 0.297347,0 0.575058,-0.0729 0.280516,-0.0729 0.555422,-0.2188 v 0.4881 q -0.277711,0.11781 -0.569448,0.17953 -0.291737,0.0617 -0.591889,0.0617 -0.751783,0 -1.192193,-0.4376 -0.437605,-0.43761 -0.437605,-1.18378 0,-0.77142 0.415163,-1.22305 0.417969,-0.45444 1.12487,-0.45444 0.633966,0 1.001443,0.40956 0.370281,0.40674 0.370281,1.10803 z m -0.51615,-0.15147 q -0.0056,-0.42358 -0.238439,-0.67605 -0.230023,-0.25246 -0.611525,-0.25246 -0.431994,0 -0.692874,0.24405 -0.258075,0.24404 -0.297347,0.68726 z" />
    <path
       inkscape:connector-curvature="0"
       id="path16"
       style="font-style:normal;font-weight:normal;font-size:5.74496984px;line-height:1.25;font-family:sans-serif;letter-spacing:0px;word-spacing:0px;fill:#ffffff;fill-opacity:1;stroke:none;stroke-width:0.14362423"
       d="m 80.60712,288.27357 q -0.08696,-0.0505 -0.190751,-0.0729 -0.100986,-0.0252 -0.224413,-0.0252 -0.437605,0 -0.673238,0.28612 -0.232829,0.28333 -0.232829,0.81631 v 1.65504 h -0.518955 v -3.14178 h 0.518955 v 0.4881 q 0.1627,-0.28613 0.423579,-0.42358 0.26088,-0.14026 0.633967,-0.14026 0.0533,0 0.117817,0.008 0.06452,0.006 0.143063,0.0196 z" />
    <path
       inkscape:connector-curvature="0"
       id="path18"
       style="font-style:normal;font-weight:normal;font-size:5.74496984px;line-height:1.25;font-family:sans-serif;letter-spacing:0px;word-spacing:0px;fill:#ffffff;fill-opacity:1;stroke:none;stroke-width:0.14362423"
       d="m 83.709628,289.23293 v 0.25247 h -2.373166 q 0.03366,0.53298 0.319788,0.81349 0.288931,0.27772 0.802276,0.27772 0.297347,0 0.575058,-0.0729 0.280516,-0.0729 0.555422,-0.2188 v 0.4881 q -0.277711,0.11781 -0.569448,0.17953 -0.291737,0.0617 -0.591889,0.0617 -0.751783,0 -1.192193,-0.4376 -0.437605,-0.43761 -0.437605,-1.18378 0,-0.77142 0.415163,-1.22305 0.417969,-0.45444 1.12487,-0.45444 0.633966,0 1.001443,0.40956 0.370281,0.40674 0.370281,1.10803 z m -0.51615,-0.15147 q -0.0056,-0.42358 -0.238439,-0.67605 -0.230023,-0.25246 -0.611525,-0.25246 -0.431994,0 -0.692874,0.24405 -0.258075,0.24404 -0.297347,0.68726 z" />
    <path
       inkscape:connector-curvature="0"
       id="path20"
       style="font-style:normal;font-weight:normal;font-size:5.74496984px;line-height:1.25;font-family:sans-serif;letter-spacing:0px;word-spacing:0px;fill:#ffffff;fill-opacity:1;stroke:none;stroke-width:0.14362423"
       d="m 87.168391,289.03657 v 1.89629 h -0.516149 v -1.87946 q 0,-0.44602 -0.17392,-0.66762 -0.17392,-0.22161 -0.52176,-0.22161 -0.417969,0 -0.659213,0.26649 -0.241244,0.26649 -0.241244,0.72653 v 1.77567 H 84.53715 v -3.14178 h 0.518955 v 0.4881 q 0.185141,-0.28332 0.4348,-0.42358 0.252465,-0.14026 0.580668,-0.14026 0.541397,0 0.819107,0.33662 0.277711,0.33382 0.277711,0.98461 z" />
    <path
       inkscape:connector-curvature="0"
       id="path22"
       style="font-style:normal;font-weight:normal;font-size:5.74496984px;line-height:1.25;font-family:sans-serif;letter-spacing:0px;word-spacing:0px;fill:#ffffff;fill-opacity:1;stroke:none;stroke-width:0.14362423"
       d="m 90.458846,287.9117 v 0.48249 q -0.218802,-0.12062 -0.44041,-0.17953 -0.218803,-0.0617 -0.443216,-0.0617 -0.502123,0 -0.779834,0.31979 -0.277711,0.31698 -0.277711,0.89204 0,0.57505 0.277711,0.89484 0.277711,0.31699 0.779834,0.31699 0.224413,0 0.443216,-0.0589 0.221608,-0.0617 0.44041,-0.18234 v 0.47688 q -0.215997,0.10099 -0.448826,0.15148 -0.230023,0.0505 -0.490903,0.0505 -0.709705,0 -1.127674,-0.44602 -0.417969,-0.44602 -0.417969,-1.20341 0,-0.76862 0.420774,-1.20903 0.423579,-0.44041 1.158531,-0.44041 0.238439,0 0.465657,0.0505 0.227218,0.0477 0.44041,0.14587 z" />
    <path
       inkscape:connector-curvature="0"
       id="path24"
       style="font-style:normal;font-weight:normal;font-size:5.74496984px;line-height:1.25;font-family:sans-serif;letter-spacing:0px;word-spacing:0px;fill:#ffffff;fill-opacity:1;stroke:none;stroke-width:0.14362423"
       d="m 91.356498,287.79108 h 0.516149 v 3.14178 h -0.516149 z m 0,-1.22305 h 0.516149 v 0.6536 h -0.516149 z" />
    <path
       inkscape:connector-curvature="0"
       id="path26"
       style="font-style:normal;font-weight:normal;font-size:5.74496984px;line-height:1.25;font-family:sans-serif;letter-spacing:0px;word-spacing:0px;fill:#ffffff;fill-opacity:1;stroke:none;stroke-width:0.14362423"
       d="m 94.380461,289.35356 q -0.625551,0 -0.866795,0.14306 -0.241244,0.14306 -0.241244,0.4881 0,0.2749 0.17953,0.4376 0.182336,0.1599 0.493709,0.1599 0.429189,0 0.687264,-0.30296 0.26088,-0.30576 0.26088,-0.81069 v -0.11501 z m 1.029494,-0.2132 v 1.7925 h -0.51615 v -0.47688 q -0.176725,0.28613 -0.44041,0.42358 -0.263685,0.13465 -0.645187,0.13465 -0.482488,0 -0.768614,-0.26929 -0.283321,-0.27211 -0.283321,-0.72654 0,-0.53018 0.35345,-0.79947 0.356255,-0.2693 1.060351,-0.2693 h 0.723731 v -0.0505 q 0,-0.35626 -0.235633,-0.54981 -0.232829,-0.19636 -0.656408,-0.19636 -0.269295,0 -0.524565,0.0645 -0.25527,0.0645 -0.490903,0.19355 v -0.47688 q 0.283321,-0.1094 0.549811,-0.1627 0.266491,-0.0561 0.518955,-0.0561 0.681654,0 1.018274,0.35345 0.336619,0.35345 0.336619,1.07157 z" />
    <path
       inkscape:connector-curvature="0"
       id="path28"
       style="font-style:normal;font-weight:normal;font-size:5.74496984px;line-height:1.25;font-family:sans-serif;letter-spacing:0px;word-spacing:0px;fill:#ffffff;fill-opacity:1;stroke:none;stroke-width:0.14362423"
       d="m 98.540515,288.26796 v -1.69993 h 0.516149 v 4.36483 h -0.516149 v -0.47127 q -0.1627,0.28052 -0.412359,0.41797 -0.246854,0.13465 -0.594694,0.13465 -0.569448,0 -0.928508,-0.45444 -0.356256,-0.45443 -0.356256,-1.19499 0,-0.74057 0.356256,-1.195 0.35906,-0.45444 0.928508,-0.45444 0.34784,0 0.594694,0.13745 0.249659,0.13465 0.412359,0.41517 z m -1.758836,1.09682 q 0,0.56944 0.232828,0.89484 0.235634,0.3226 0.645187,0.3226 0.409554,0 0.645187,-0.3226 0.235634,-0.3254 0.235634,-0.89484 0,-0.56945 -0.235634,-0.89204 -0.235633,-0.3254 -0.645187,-0.3254 -0.409553,0 -0.645187,0.3254 -0.232828,0.32259 -0.232828,0.89204 z" />
    <path
       inkscape:connector-curvature="0"
       id="path30"
       style="font-style:normal;font-weight:normal;font-size:5.74496984px;line-height:1.25;font-family:sans-serif;letter-spacing:0px;word-spacing:0px;fill:#ffffff;fill-opacity:1;stroke:none;stroke-width:0.14362423"
       d="m 101.33726,288.15295 q -0.41516,0 -0.65641,0.3254 -0.24124,0.32259 -0.24124,0.88643 0,0.56383 0.23844,0.88923 0.24124,0.3226 0.65921,0.3226 0.41236,0 0.6536,-0.3254 0.24125,-0.3254 0.24125,-0.88643 0,-0.55823 -0.24125,-0.88363 -0.24124,-0.3282 -0.6536,-0.3282 z m 0,-0.43761 q 0.67324,0 1.05755,0.43761 0.3843,0.4376 0.3843,1.21183 0,0.77142 -0.3843,1.21183 -0.38431,0.4376 -1.05755,0.4376 -0.67604,0 -1.06035,-0.4376 -0.381502,-0.44041 -0.381502,-1.21183 0,-0.77423 0.381502,-1.21183 0.38431,-0.43761 1.06035,-0.43761 z" />
    <path
       inkscape:connector-curvature="0"
       id="path32"
       style="font-style:normal;font-weight:normal;font-size:5.74496984px;line-height:1.25;font-family:sans-serif;letter-spacing:0px;word-spacing:0px;fill:#ffffff;fill-opacity:1;stroke:none;stroke-width:0.14362423"
       d="m 105.45524,288.27357 q -0.087,-0.0505 -0.19075,-0.0729 -0.10099,-0.0252 -0.22442,-0.0252 -0.4376,0 -0.67323,0.28612 -0.23283,0.28333 -0.23283,0.81631 v 1.65504 h -0.51896 v -3.14178 h 0.51896 v 0.4881 q 0.1627,-0.28613 0.42358,-0.42358 0.26088,-0.14026 0.63396,-0.14026 0.0533,0 0.11782,0.008 0.0645,0.006 0.14306,0.0196 z" />
    <path
       inkscape:connector-curvature="0"
       id="path34"
       style="font-style:normal;font-weight:normal;font-size:5.74496984px;line-height:1.25;font-family:sans-serif;letter-spacing:0px;word-spacing:0px;fill:#ffffff;fill-opacity:1;stroke:none;stroke-width:0.14362423"
       d="m 109.89019,288.26796 v -1.69993 h 0.51615 v 4.36483 h -0.51615 v -0.47127 q -0.16269,0.28052 -0.41235,0.41797 -0.24686,0.13465 -0.5947,0.13465 -0.56945,0 -0.92851,-0.45444 -0.35625,-0.45443 -0.35625,-1.19499 0,-0.74057 0.35625,-1.195 0.35906,-0.45444 0.92851,-0.45444 0.34784,0 0.5947,0.13745 0.24966,0.13465 0.41235,0.41517 z m -1.75883,1.09682 q 0,0.56944 0.23283,0.89484 0.23563,0.3226 0.64518,0.3226 0.40956,0 0.64519,-0.3226 0.23563,-0.3254 0.23563,-0.89484 0,-0.56945 -0.23563,-0.89204 -0.23563,-0.3254 -0.64519,-0.3254 -0.40955,0 -0.64518,0.3254 -0.23283,0.32259 -0.23283,0.89204 z" />
    <path
       inkscape:connector-curvature="0"
       id="path36"
       style="font-style:normal;font-weight:normal;font-size:5.74496984px;line-height:1.25;font-family:sans-serif;letter-spacing:0px;word-spacing:0px;fill:#ffffff;fill-opacity:1;stroke:none;stroke-width:0.14362423"
       d="m 114.15684,289.23293 v 0.25247 h -2.37316 q 0.0337,0.53298 0.31979,0.81349 0.28893,0.27772 0.80227,0.27772 0.29735,0 0.57506,-0.0729 0.28052,-0.0729 0.55542,-0.2188 v 0.4881 q -0.27771,0.11781 -0.56944,0.17953 -0.29174,0.0617 -0.59189,0.0617 -0.75179,0 -1.1922,-0.4376 -0.4376,-0.43761 -0.4376,-1.18378 0,-0.77142 0.41516,-1.22305 0.41797,-0.45444 1.12487,-0.45444 0.63397,0 1.00144,0.40956 0.37028,0.40674 0.37028,1.10803 z m -0.51614,-0.15147 q -0.006,-0.42358 -0.23844,-0.67605 -0.23003,-0.25246 -0.61153,-0.25246 -0.43199,0 -0.69287,0.24405 -0.25808,0.24404 -0.29735,0.68726 z" />
    <path
       inkscape:connector-curvature="0"
       id="path38"
       style="font-style:normal;font-weight:normal;font-size:5.74496984px;line-height:1.25;font-family:sans-serif;letter-spacing:0px;word-spacing:0px;fill:#ffffff;fill-opacity:1;stroke:none;stroke-width:0.14362423"
       d="m 119.09112,287.9117 v 0.48249 q -0.2188,-0.12062 -0.44041,-0.17953 -0.2188,-0.0617 -0.44321,-0.0617 -0.50212,0 -0.77984,0.31979 -0.27771,0.31698 -0.27771,0.89204 0,0.57505 0.27771,0.89484 0.27772,0.31699 0.77984,0.31699 0.22441,0 0.44321,-0.0589 0.22161,-0.0617 0.44041,-0.18234 v 0.47688 q -0.21599,0.10099 -0.44882,0.15148 -0.23002,0.0505 -0.4909,0.0505 -0.70971,0 -1.12768,-0.44602 -0.41797,-0.44602 -0.41797,-1.20341 0,-0.76862 0.42078,-1.20903 0.42358,-0.44041 1.15853,-0.44041 0.23844,0 0.46565,0.0505 0.22722,0.0477 0.44041,0.14587 z" />
    <path
       inkscape:connector-curvature="0"
       id="path40"
       style="font-style:normal;font-weight:normal;font-size:5.74496984px;line-height:1.25;font-family:sans-serif;letter-spacing:0px;word-spacing:0px;fill:#ffffff;fill-opacity:1;stroke:none;stroke-width:0.14362423"
       d="m 121.20622,288.15295 q -0.41517,0 -0.65641,0.3254 -0.24125,0.32259 -0.24125,0.88643 0,0.56383 0.23844,0.88923 0.24125,0.3226 0.65922,0.3226 0.41235,0 0.6536,-0.3254 0.24124,-0.3254 0.24124,-0.88643 0,-0.55823 -0.24124,-0.88363 -0.24125,-0.3282 -0.6536,-0.3282 z m 0,-0.43761 q 0.67323,0 1.05754,0.43761 0.38431,0.4376 0.38431,1.21183 0,0.77142 -0.38431,1.21183 -0.38431,0.4376 -1.05754,0.4376 -0.67605,0 -1.06035,-0.4376 -0.38151,-0.44041 -0.38151,-1.21183 0,-0.77423 0.38151,-1.21183 0.3843,-0.43761 1.06035,-0.43761 z" />
    <path
       inkscape:connector-curvature="0"
       id="path42"
       style="font-style:normal;font-weight:normal;font-size:5.74496984px;line-height:1.25;font-family:sans-serif;letter-spacing:0px;word-spacing:0px;fill:#ffffff;fill-opacity:1;stroke:none;stroke-width:0.14362423"
       d="m 126.11525,289.03657 v 1.89629 h -0.51615 v -1.87946 q 0,-0.44602 -0.17392,-0.66762 -0.17392,-0.22161 -0.52176,-0.22161 -0.41797,0 -0.65922,0.26649 -0.24124,0.26649 -0.24124,0.72653 v 1.77567 h -0.51895 v -3.14178 h 0.51895 v 0.4881 q 0.18514,-0.28332 0.4348,-0.42358 0.25247,-0.14026 0.58067,-0.14026 0.5414,0 0.81911,0.33662 0.27771,0.33382 0.27771,0.98461 z" />
    <path
       inkscape:connector-curvature="0"
       id="path44"
       style="font-style:normal;font-weight:normal;font-size:5.74496984px;line-height:1.25;font-family:sans-serif;letter-spacing:0px;word-spacing:0px;fill:#ffffff;fill-opacity:1;stroke:none;stroke-width:0.14362423"
       d="m 129.21214,288.26796 v -1.69993 h 0.51615 v 4.36483 h -0.51615 v -0.47127 q -0.1627,0.28052 -0.41235,0.41797 -0.24686,0.13465 -0.5947,0.13465 -0.56945,0 -0.92851,-0.45444 -0.35625,-0.45443 -0.35625,-1.19499 0,-0.74057 0.35625,-1.195 0.35906,-0.45444 0.92851,-0.45444 0.34784,0 0.5947,0.13745 0.24965,0.13465 0.41235,0.41517 z m -1.75883,1.09682 q 0,0.56944 0.23283,0.89484 0.23563,0.3226 0.64518,0.3226 0.40956,0 0.64519,-0.3226 0.23563,-0.3254 0.23563,-0.89484 0,-0.56945 -0.23563,-0.89204 -0.23563,-0.3254 -0.64519,-0.3254 -0.40955,0 -0.64518,0.3254 -0.23283,0.32259 -0.23283,0.89204 z" />
    <path
       inkscape:connector-curvature="0"
       id="path46"
       style="font-style:normal;font-weight:normal;font-size:5.74496984px;line-height:1.25;font-family:sans-serif;letter-spacing:0px;word-spacing:0px;fill:#ffffff;fill-opacity:1;stroke:none;stroke-width:0.14362423"
       d="m 132.00889,288.15295 q -0.41516,0 -0.65641,0.3254 -0.24124,0.32259 -0.24124,0.88643 0,0.56383 0.23844,0.88923 0.24124,0.3226 0.65921,0.3226 0.41236,0 0.6536,-0.3254 0.24125,-0.3254 0.24125,-0.88643 0,-0.55823 -0.24125,-0.88363 -0.24124,-0.3282 -0.6536,-0.3282 z m 0,-0.43761 q 0.67324,0 1.05755,0.43761 0.3843,0.4376 0.3843,1.21183 0,0.77142 -0.3843,1.21183 -0.38431,0.4376 -1.05755,0.4376 -0.67604,0 -1.06035,-0.4376 -0.3815,-0.44041 -0.3815,-1.21183 0,-0.77423 0.3815,-1.21183 0.38431,-0.43761 1.06035,-0.43761 z" />
    <path
       inkscape:connector-curvature="0"
       id="path48"
       style="font-style:normal;font-weight:normal;font-size:5.74496984px;line-height:1.25;font-family:sans-serif;letter-spacing:0px;word-spacing:0px;fill:#ffffff;fill-opacity:1;stroke:none;stroke-width:0.14362423"
       d="m 136.75242,288.39419 q 0.19356,-0.34784 0.46285,-0.51334 0.2693,-0.16551 0.63397,-0.16551 0.4909,0 0.75739,0.34504 0.26649,0.34223 0.26649,0.97619 v 1.89629 h -0.51895 v -1.87946 q 0,-0.45163 -0.1599,-0.67043 -0.15989,-0.2188 -0.4881,-0.2188 -0.40113,0 -0.63396,0.26649 -0.23283,0.26649 -0.23283,0.72653 v 1.77567 h -0.51896 v -1.87946 q 0,-0.45443 -0.15989,-0.67043 -0.15989,-0.2188 -0.49371,-0.2188 -0.39553,0 -0.62835,0.26929 -0.23283,0.26649 -0.23283,0.72373 v 1.77567 h -0.51896 v -3.14178 h 0.51896 v 0.4881 q 0.17672,-0.28893 0.42358,-0.42639 0.24685,-0.13745 0.58628,-0.13745 0.34223,0 0.58066,0.17392 0.24125,0.17392 0.35626,0.50493 z" />
    <path
       inkscape:connector-curvature="0"
       id="path50"
       style="font-style:normal;font-weight:normal;font-size:5.74496984px;line-height:1.25;font-family:sans-serif;letter-spacing:0px;word-spacing:0px;fill:#ffffff;fill-opacity:1;stroke:none;stroke-width:0.14362423"
       d="m 140.55061,286.33801 h 0.55823 l -0.91449,1.05474 h -0.42919 z m -0.64799,1.45307 h 0.51615 v 3.14178 h -0.51615 z m 0.25807,-0.0757 z" />
    <path
       inkscape:connector-curvature="0"
       id="path52"
       style="font-style:normal;font-weight:normal;font-size:5.74496984px;line-height:1.25;font-family:sans-serif;letter-spacing:0px;word-spacing:0px;fill:#ffffff;fill-opacity:1;stroke:none;stroke-width:0.14362423"
       d="m 144.11035,289.03657 v 1.89629 h -0.51615 v -1.87946 q 0,-0.44602 -0.17392,-0.66762 -0.17392,-0.22161 -0.52176,-0.22161 -0.41797,0 -0.65921,0.26649 -0.24124,0.26649 -0.24124,0.72653 v 1.77567 h -0.51896 v -3.14178 h 0.51896 v 0.4881 q 0.18514,-0.28332 0.4348,-0.42358 0.25246,-0.14026 0.58066,-0.14026 0.5414,0 0.81911,0.33662 0.27771,0.33382 0.27771,0.98461 z" />
    <path
       inkscape:connector-curvature="0"
       id="path54"
       style="font-style:normal;font-weight:normal;font-size:5.74496984px;line-height:1.25;font-family:sans-serif;letter-spacing:0px;word-spacing:0px;fill:#ffffff;fill-opacity:1;stroke:none;stroke-width:0.14362423"
       d="m 145.13985,287.79108 h 0.51615 v 3.14178 h -0.51615 z m 0,-1.22305 h 0.51615 v 0.6536 h -0.51615 z" />
    <path
       inkscape:connector-curvature="0"
       id="path56"
       style="font-style:normal;font-weight:normal;font-size:5.74496984px;line-height:1.25;font-family:sans-serif;letter-spacing:0px;word-spacing:0px;fill:#ffffff;fill-opacity:1;stroke:none;stroke-width:0.14362423"
       d="m 147.95342,288.15295 q -0.41516,0 -0.6564,0.3254 -0.24125,0.32259 -0.24125,0.88643 0,0.56383 0.23844,0.88923 0.24124,0.3226 0.65921,0.3226 0.41236,0 0.65361,-0.3254 0.24124,-0.3254 0.24124,-0.88643 0,-0.55823 -0.24124,-0.88363 -0.24125,-0.3282 -0.65361,-0.3282 z m 0,-0.43761 q 0.67324,0 1.05755,0.43761 0.38431,0.4376 0.38431,1.21183 0,0.77142 -0.38431,1.21183 -0.38431,0.4376 -1.05755,0.4376 -0.67604,0 -1.06035,-0.4376 -0.3815,-0.44041 -0.3815,-1.21183 0,-0.77423 0.3815,-1.21183 0.38431,-0.43761 1.06035,-0.43761 z" />
    <path
       inkscape:connector-curvature="0"
       id="path58"
       style="font-style:normal;font-weight:normal;font-size:5.74496984px;line-height:1.25;font-family:sans-serif;letter-spacing:0px;word-spacing:0px;fill:#ffffff;fill-opacity:1;stroke:none;stroke-width:0.14362423"
       d="m 153.79938,287.12906 q -0.61714,0 -0.98181,0.46005 -0.36186,0.46005 -0.36186,1.25391 0,0.79105 0.36186,1.2511 0.36467,0.46004 0.98181,0.46004 0.61713,0 0.9762,-0.46004 0.36186,-0.46005 0.36186,-1.2511 0,-0.79386 -0.36186,-1.25391 -0.35907,-0.46005 -0.9762,-0.46005 z m 0,-0.46004 q 0.88082,0 1.40819,0.59189 0.52737,0.58908 0.52737,1.58211 0,0.99022 -0.52737,1.58211 -0.52737,0.58908 -1.40819,0.58908 -0.88363,0 -1.4138,-0.58908 -0.52737,-0.58909 -0.52737,-1.58211 0,-0.99303 0.52737,-1.58211 0.53017,-0.59189 1.4138,-0.59189 z" />
    <path
       inkscape:connector-curvature="0"
       id="path60"
       style="font-style:normal;font-weight:normal;font-size:5.74496984px;line-height:1.25;font-family:sans-serif;letter-spacing:0px;word-spacing:0px;fill:#ffffff;fill-opacity:1;stroke:none;stroke-width:0.14362423"
       d="m 157.09826,290.46159 v 1.66627 h -0.51896 v -4.33678 h 0.51896 v 0.47688 q 0.16269,-0.28052 0.40955,-0.41517 0.24966,-0.13745 0.59469,-0.13745 0.57226,0 0.92851,0.45444 0.35906,0.45443 0.35906,1.195 0,0.74056 -0.35906,1.19499 -0.35625,0.45444 -0.92851,0.45444 -0.34503,0 -0.59469,-0.13465 -0.24686,-0.13745 -0.40955,-0.41797 z m 1.75603,-1.09681 q 0,-0.56945 -0.23564,-0.89204 -0.23283,-0.3254 -0.64238,-0.3254 -0.40955,0 -0.64519,0.3254 -0.23282,0.32259 -0.23282,0.89204 0,0.56944 0.23282,0.89484 0.23564,0.3226 0.64519,0.3226 0.40955,0 0.64238,-0.3226 0.23564,-0.3254 0.23564,-0.89484 z" />
    <path
       inkscape:connector-curvature="0"
       id="path62"
       style="font-style:normal;font-weight:normal;font-size:5.74496984px;line-height:1.25;font-family:sans-serif;letter-spacing:0px;word-spacing:0px;fill:#ffffff;fill-opacity:1;stroke:none;stroke-width:0.14362423"
       d="m 162.93299,289.23293 v 0.25247 h -2.37317 q 0.0337,0.53298 0.31979,0.81349 0.28893,0.27772 0.80228,0.27772 0.29734,0 0.57505,-0.0729 0.28052,-0.0729 0.55542,-0.2188 v 0.4881 q -0.27771,0.11781 -0.56944,0.17953 -0.29174,0.0617 -0.59189,0.0617 -0.75178,0 -1.1922,-0.4376 -0.4376,-0.43761 -0.4376,-1.18378 0,-0.77142 0.41516,-1.22305 0.41797,-0.45444 1.12487,-0.45444 0.63397,0 1.00145,0.40956 0.37028,0.40674 0.37028,1.10803 z m -0.51615,-0.15147 q -0.006,-0.42358 -0.23844,-0.67605 -0.23002,-0.25246 -0.61153,-0.25246 -0.43199,0 -0.69287,0.24405 -0.25808,0.24404 -0.29735,0.68726 z" />
    <path
       inkscape:connector-curvature="0"
       id="path64"
       style="font-style:normal;font-weight:normal;font-size:5.74496984px;line-height:1.25;font-family:sans-serif;letter-spacing:0px;word-spacing:0px;fill:#ffffff;fill-opacity:1;stroke:none;stroke-width:0.14362423"
       d="m 166.39175,289.03657 v 1.89629 h -0.51615 v -1.87946 q 0,-0.44602 -0.17392,-0.66762 -0.17392,-0.22161 -0.52176,-0.22161 -0.41797,0 -0.65921,0.26649 -0.24125,0.26649 -0.24125,0.72653 v 1.77567 h -0.51895 v -3.14178 h 0.51895 v 0.4881 q 0.18514,-0.28332 0.4348,-0.42358 0.25247,-0.14026 0.58067,-0.14026 0.5414,0 0.81911,0.33662 0.27771,0.33382 0.27771,0.98461 z" />
    <path
       inkscape:connector-curvature="0"
       id="path66"
       style="font-style:normal;font-weight:normal;font-size:5.74496984px;line-height:1.25;font-family:sans-serif;letter-spacing:0px;word-spacing:0px;fill:#ffffff;fill-opacity:1;stroke:none;stroke-width:0.14362423"
       d="m 169.95431,286.88221 v 0.55262 q -0.32259,-0.15429 -0.60872,-0.23003 -0.28613,-0.0757 -0.55262,-0.0757 -0.46285,0 -0.71531,0.17953 -0.24966,0.17953 -0.24966,0.51054 0,0.27771 0.1655,0.42078 0.16831,0.14025 0.63397,0.22721 l 0.34223,0.0701 q 0.63396,0.12063 0.93412,0.42639 0.30295,0.30296 0.30295,0.81349 0,0.60872 -0.40955,0.9229 -0.40675,0.31418 -1.195,0.31418 -0.29735,0 -0.63397,-0.0673 -0.33381,-0.0673 -0.69287,-0.19917 v -0.58347 q 0.34503,0.19355 0.67604,0.29173 0.33101,0.0982 0.6508,0.0982 0.48529,0 0.74898,-0.19075 0.26368,-0.19075 0.26368,-0.5442 0,-0.30857 -0.19075,-0.48249 -0.18794,-0.17392 -0.61994,-0.26088 l -0.34503,-0.0673 q -0.63397,-0.12623 -0.91729,-0.39553 -0.28332,-0.26929 -0.28332,-0.74897 0,-0.55543 0.38992,-0.87522 0.39272,-0.31978 1.07998,-0.31978 0.29455,0 0.60031,0.0533 0.30576,0.0533 0.62555,0.1599 z" />
    <path
       inkscape:connector-curvature="0"
       id="path68"
       style="font-style:normal;font-weight:normal;font-size:5.74496984px;line-height:1.25;font-family:sans-serif;letter-spacing:0px;word-spacing:0px;fill:#ffffff;fill-opacity:1;stroke:none;stroke-width:0.14362423"
       d="m 172.28539,288.15295 q -0.41516,0 -0.6564,0.3254 -0.24125,0.32259 -0.24125,0.88643 0,0.56383 0.23844,0.88923 0.24124,0.3226 0.65921,0.3226 0.41236,0 0.65361,-0.3254 0.24124,-0.3254 0.24124,-0.88643 0,-0.55823 -0.24124,-0.88363 -0.24125,-0.3282 -0.65361,-0.3282 z m 0,-0.43761 q 0.67324,0 1.05755,0.43761 0.38431,0.4376 0.38431,1.21183 0,0.77142 -0.38431,1.21183 -0.38431,0.4376 -1.05755,0.4376 -0.67604,0 -1.06035,-0.4376 -0.3815,-0.44041 -0.3815,-1.21183 0,-0.77423 0.3815,-1.21183 0.38431,-0.43761 1.06035,-0.43761 z" />
    <path
       inkscape:connector-curvature="0"
       id="path70"
       style="font-style:normal;font-weight:normal;font-size:5.74496984px;line-height:1.25;font-family:sans-serif;letter-spacing:0px;word-spacing:0px;fill:#ffffff;fill-opacity:1;stroke:none;stroke-width:0.14362423"
       d="m 174.52953,289.69298 v -1.9019 h 0.51615 v 1.88226 q 0,0.44602 0.17392,0.67044 0.17392,0.22161 0.52176,0.22161 0.41796,0 0.65921,-0.2665 0.24405,-0.26649 0.24405,-0.72653 v -1.78128 h 0.51615 v 3.14178 h -0.51615 v -0.48249 q -0.18795,0.28613 -0.43761,0.42639 -0.24685,0.13745 -0.57506,0.13745 -0.54139,0 -0.82191,-0.33662 -0.28051,-0.33662 -0.28051,-0.98461 z m 1.29879,-1.97764 z" />
    <path
       inkscape:connector-curvature="0"
       id="path72"
       style="font-style:normal;font-weight:normal;font-size:5.74496984px;line-height:1.25;font-family:sans-serif;letter-spacing:0px;word-spacing:0px;fill:#ffffff;fill-opacity:1;stroke:none;stroke-width:0.14362423"
       d="m 180.04447,288.27357 q -0.087,-0.0505 -0.19075,-0.0729 -0.10099,-0.0252 -0.22441,-0.0252 -0.43761,0 -0.67324,0.28612 -0.23283,0.28333 -0.23283,0.81631 v 1.65504 h -0.51895 v -3.14178 h 0.51895 v 0.4881 q 0.1627,-0.28613 0.42358,-0.42358 0.26088,-0.14026 0.63397,-0.14026 0.0533,0 0.11781,0.008 0.0645,0.006 0.14307,0.0196 z" />
    <path
       inkscape:connector-curvature="0"
       id="path74"
       style="font-style:normal;font-weight:normal;font-size:5.74496984px;line-height:1.25;font-family:sans-serif;letter-spacing:0px;word-spacing:0px;fill:#ffffff;fill-opacity:1;stroke:none;stroke-width:0.14362423"
       d="m 182.72059,287.9117 v 0.48249 q -0.2188,-0.12062 -0.44041,-0.17953 -0.2188,-0.0617 -0.44321,-0.0617 -0.50213,0 -0.77984,0.31979 -0.27771,0.31698 -0.27771,0.89204 0,0.57505 0.27771,0.89484 0.27771,0.31699 0.77984,0.31699 0.22441,0 0.44321,-0.0589 0.22161,-0.0617 0.44041,-0.18234 v 0.47688 q -0.216,0.10099 -0.44882,0.15148 -0.23003,0.0505 -0.49091,0.0505 -0.7097,0 -1.12767,-0.44602 -0.41797,-0.44602 -0.41797,-1.20341 0,-0.76862 0.42077,-1.20903 0.42358,-0.44041 1.15853,-0.44041 0.23844,0 0.46566,0.0505 0.22722,0.0477 0.44041,0.14587 z" />
    <path
       inkscape:connector-curvature="0"
       id="path76"
       style="font-style:normal;font-weight:normal;font-size:5.74496984px;line-height:1.25;font-family:sans-serif;letter-spacing:0px;word-spacing:0px;fill:#ffffff;fill-opacity:1;stroke:none;stroke-width:0.14362423"
       d="m 186.30559,289.23293 v 0.25247 h -2.37316 q 0.0337,0.53298 0.31978,0.81349 0.28893,0.27772 0.80228,0.27772 0.29735,0 0.57506,-0.0729 0.28051,-0.0729 0.55542,-0.2188 v 0.4881 q -0.27771,0.11781 -0.56945,0.17953 -0.29174,0.0617 -0.59189,0.0617 -0.75178,0 -1.19219,-0.4376 -0.43761,-0.43761 -0.43761,-1.18378 0,-0.77142 0.41517,-1.22305 0.41797,-0.45444 1.12487,-0.45444 0.63396,0 1.00144,0.40956 0.37028,0.40674 0.37028,1.10803 z m -0.51615,-0.15147 q -0.006,-0.42358 -0.23844,-0.67605 -0.23002,-0.25246 -0.61152,-0.25246 -0.432,0 -0.69288,0.24405 -0.25807,0.24404 -0.29734,0.68726 z" />
  </g>
</svg>
